<svg
  width="24"
  height="24"
  viewBox="0 0 24 24"
  fill="none"
  xmlns="http://www.w3.org/2000/svg"
>
  <path
    fill-rule="evenodd"
    clip-rule="evenodd"
    d="M7 5C7 4.44772 7.44772 4 8 4C8.55228 4 9 4.44772 9 5V6H7V5ZM17 6H18C19.1046 6 20 6.89543 20 8V10H4V8C4 6.89543 4.89543 6 6 6H7V7C7 7.55228 7.44772 8 8 8C8.55228 8 9 7.55228 9 7V6H15V7C15 7.55228 15.4477 8 16 8C16.5523 8 17 7.55228 17 7V6ZM17 6H15V5C15 4.44772 15.4477 4 16 4C16.5523 4 17 4.44772 17 5V6ZM20 12H4V18C4 19.1046 4.89543 20 6 20H18C19.1046 20 20 19.1046 20 18V12Z"
    fill="#545969"
  />
</svg>
