<svg width="24" height="24" viewBox="0 0 24 24" fill="none" xmlns="http://www.w3.org/2000/svg">
<path d="M12 15.2502C11.8833 15.2502 11.771 15.2295 11.663 15.1882C11.5543 15.1462 11.4583 15.0752 11.375 14.9752L8.25 11.8752C8.11667 11.7419 8.05 11.5669 8.05 11.3502C8.05 11.1335 8.11667 10.9585 8.25 10.8252C8.4 10.6752 8.579 10.5959 8.787 10.5872C8.99567 10.5792 9.175 10.6502 9.325 10.8002L11.25 12.7252V5.0752C11.25 4.85853 11.321 4.6792 11.463 4.5372C11.6043 4.39586 11.7833 4.3252 12 4.3252C12.2167 4.3252 12.396 4.39586 12.538 4.5372C12.6793 4.6792 12.75 4.85853 12.75 5.0752V12.7252L14.675 10.8002C14.8083 10.6669 14.9833 10.6002 15.2 10.6002C15.4167 10.6002 15.6 10.6752 15.75 10.8252C15.8833 10.9585 15.95 11.1292 15.95 11.3372C15.95 11.5459 15.8833 11.7252 15.75 11.8752L12.625 14.9752C12.5417 15.0752 12.446 15.1462 12.338 15.1882C12.2293 15.2295 12.1167 15.2502 12 15.2502ZM6.3 19.5002C5.8 19.5002 5.375 19.3252 5.025 18.9752C4.675 18.6252 4.5 18.2002 4.5 17.7002V15.7502C4.5 15.5335 4.571 15.3542 4.713 15.2122C4.85433 15.0709 5.03333 15.0002 5.25 15.0002C5.46667 15.0002 5.64567 15.0709 5.787 15.2122C5.929 15.3542 6 15.5335 6 15.7502V17.7002C6 17.7669 6.03333 17.8335 6.1 17.9002C6.16667 17.9669 6.23333 18.0002 6.3 18.0002H17.7C17.7667 18.0002 17.8333 17.9669 17.9 17.9002C17.9667 17.8335 18 17.7669 18 17.7002V15.7502C18 15.5335 18.0707 15.3542 18.212 15.2122C18.354 15.0709 18.5333 15.0002 18.75 15.0002C18.9667 15.0002 19.146 15.0709 19.288 15.2122C19.4293 15.3542 19.5 15.5335 19.5 15.7502V17.7002C19.5 18.2002 19.325 18.6252 18.975 18.9752C18.625 19.3252 18.2 19.5002 17.7 19.5002H6.3Z" fill="#545969"/>
</svg>
