<svg width="80" height="28" viewBox="0 0 80 28" fill="none" xmlns="http://www.w3.org/2000/svg">
<rect x="1" y="1" width="78" height="26" fill="white" stroke="#1A1B25" stroke-width="2"/>
<path d="M21.5005 11.0004C21.4725 10.7951 21.4859 10.5244 21.3365 10.3844C21.1872 10.2351 21.0005 10.1184 20.7765 10.0344C20.5619 9.95043 20.3192 9.88976 20.0485 9.85243C19.7872 9.8151 19.5259 9.79643 19.2645 9.79643C18.4339 9.79643 17.7899 10.0064 17.3325 10.4264C16.9779 10.7438 16.7212 11.1684 16.5625 11.7004C16.4039 12.2231 16.3245 12.7924 16.3245 13.4084C16.3245 13.9964 16.4039 14.5144 16.5625 14.9624C16.7305 15.4104 16.9545 15.7884 17.2345 16.0964C17.5239 16.3951 17.8645 16.6238 18.2565 16.7824C18.6485 16.9318 19.0779 17.0064 19.5445 17.0064C19.9459 17.0064 20.4079 16.9644 20.9305 16.8804C21.4625 16.7871 21.9619 16.6144 22.4285 16.3624L22.5965 16.6704L22.2605 17.2864C21.7752 17.5851 21.2852 17.8044 20.7905 17.9444C20.3052 18.0844 19.8059 18.1544 19.2925 18.1544C18.5925 18.1544 17.9579 18.0424 17.3885 17.8184C16.8192 17.5944 16.3292 17.2771 15.9185 16.8664C15.5172 16.4464 15.2045 15.9518 14.9805 15.3824C14.7565 14.8038 14.6445 14.1644 14.6445 13.4644C14.6445 12.8111 14.7425 12.1951 14.9385 11.6164C15.1439 11.0284 15.4425 10.5198 15.8345 10.0904C16.2359 9.6611 16.7259 9.32043 17.3045 9.06843C17.8925 8.81643 18.5739 8.69043 19.3485 8.69043C19.5352 8.69043 19.7545 8.69976 20.0065 8.71843C20.2585 8.72776 20.5245 8.75576 20.8045 8.80243C21.0845 8.83976 21.3645 8.90043 21.6445 8.98443C21.9339 9.0591 22.2092 9.1571 22.4705 9.27843L22.5125 9.40443L22.5005 11.0004H21.5005Z" fill="#1A1B25"/>
<path d="M27.474 17.9024C27.502 17.8184 27.5207 17.6971 27.53 17.5384C27.5487 17.3798 27.572 17.2351 27.6 17.1044L27.586 17.0624C27.474 17.2024 27.3433 17.3378 27.194 17.4684C27.054 17.5991 26.8953 17.7158 26.718 17.8184C26.5407 17.9211 26.3493 18.0004 26.144 18.0564C25.948 18.1218 25.738 18.1544 25.514 18.1544C25.178 18.1544 24.884 18.1031 24.632 18.0004C24.38 17.8978 24.17 17.7624 24.002 17.5944C23.834 17.4264 23.7033 17.2304 23.61 17.0064C23.526 16.7824 23.484 16.5491 23.484 16.3064C23.484 15.9424 23.5633 15.6251 23.722 15.3544C23.8807 15.0838 24.0907 14.8644 24.352 14.6964C24.5947 14.5378 24.8793 14.4164 25.206 14.3324C25.5327 14.2391 25.85 14.1691 26.158 14.1224C26.466 14.0758 26.746 14.0478 26.998 14.0384C27.25 14.0198 27.418 14.0104 27.502 14.0104H27.698C27.6887 13.7211 27.67 13.4971 27.642 13.3384C27.614 13.1704 27.5767 13.0304 27.53 12.9184C27.446 12.7318 27.306 12.6011 27.11 12.5264C26.9233 12.4424 26.6993 12.4004 26.438 12.4004C26.2793 12.4004 26.1067 12.4144 25.92 12.4424C25.7427 12.4611 25.5747 12.5031 25.416 12.5684C25.2573 12.6338 25.1173 12.7271 24.996 12.8484C24.884 12.9604 24.8187 13.1098 24.8 13.2964L24.744 13.3384H24.296L24.17 12.0224L24.212 11.9384C24.268 11.8824 24.3753 11.8218 24.534 11.7564C24.6927 11.6911 24.884 11.6304 25.108 11.5744C25.332 11.5091 25.5747 11.4578 25.836 11.4204C26.1067 11.3738 26.3773 11.3504 26.648 11.3504C27.012 11.3504 27.3527 11.3971 27.67 11.4904C27.9873 11.5744 28.258 11.7051 28.482 11.8824C28.7153 12.0598 28.8973 12.2838 29.028 12.5544C29.1587 12.8158 29.224 13.1238 29.224 13.4784C29.224 13.8611 29.2193 14.1878 29.21 14.4584C29.21 14.7291 29.2053 14.9811 29.196 15.2144C29.1867 15.4478 29.1773 15.6764 29.168 15.9004C29.168 16.1151 29.168 16.3578 29.168 16.6284C29.1867 16.8431 29.21 16.9971 29.238 17.0904C29.266 17.1838 29.3127 17.2584 29.378 17.3144C29.4527 17.3891 29.5647 17.4358 29.714 17.4544C29.8727 17.4638 30.0173 17.4684 30.148 17.4684L30.19 17.5244L30.218 18.0004L30.204 18.0564C30.0453 18.0378 29.8633 18.0238 29.658 18.0144C29.4527 18.0051 29.2613 18.0004 29.084 18.0004C28.8227 18.0004 28.5613 18.0004 28.3 18.0004C28.0387 18.0098 27.7913 18.0238 27.558 18.0424L27.474 17.9024ZM27.474 16.3904C27.502 16.3438 27.53 16.2878 27.558 16.2224C27.5953 16.1571 27.6187 16.0778 27.628 15.9844L27.698 14.7944H27.572C27.2827 14.7944 26.998 14.8131 26.718 14.8504C26.438 14.8878 26.186 14.9578 25.962 15.0604C25.738 15.1631 25.556 15.3078 25.416 15.4944C25.276 15.6811 25.206 15.9238 25.206 16.2224C25.206 16.4744 25.2667 16.6751 25.388 16.8244C25.5187 16.9738 25.6913 17.0484 25.906 17.0484C26.0647 17.0484 26.2233 17.0298 26.382 16.9924C26.55 16.9458 26.704 16.8898 26.844 16.8244C26.984 16.7591 27.11 16.6891 27.222 16.6144C27.334 16.5304 27.418 16.4558 27.474 16.3904Z" fill="#1A1B25"/>
<path d="M33.1944 12.5964C33.4931 12.1484 33.8478 11.8311 34.2584 11.6444C34.6691 11.4484 35.0938 11.3504 35.5324 11.3504C35.8591 11.3504 36.1998 11.4111 36.5544 11.5324C36.9184 11.6444 37.2451 11.8358 37.5344 12.1064C37.8331 12.3678 38.0758 12.7178 38.2624 13.1564C38.4584 13.5858 38.5564 14.1178 38.5564 14.7524C38.5564 15.1818 38.4911 15.6018 38.3604 16.0124C38.2391 16.4138 38.0478 16.7731 37.7864 17.0904C37.5344 17.4078 37.2124 17.6644 36.8204 17.8604C36.4284 18.0564 35.9664 18.1544 35.4344 18.1544C34.9304 18.1544 34.4824 18.0284 34.0904 17.7764C33.7078 17.5244 33.3811 17.1931 33.1104 16.7824L33.0684 16.8104C33.0871 16.9691 33.0964 17.1418 33.0964 17.3284C33.1058 17.5058 33.1104 17.7671 33.1104 18.1124C33.1104 18.4204 33.1104 18.6818 33.1104 18.8964C33.1104 19.1111 33.1104 19.2978 33.1104 19.4564C33.1198 19.6151 33.1244 19.7504 33.1244 19.8624C33.1338 19.9838 33.1431 20.1051 33.1524 20.2264C33.1711 20.4131 33.1898 20.5578 33.2084 20.6604C33.2364 20.7631 33.2878 20.8424 33.3624 20.8984C33.4371 20.9731 33.5538 21.0198 33.7124 21.0384C33.8711 21.0571 34.0251 21.0664 34.1744 21.0664L34.2164 21.1084L34.2444 21.5984L34.2304 21.6404C34.1651 21.6404 34.0624 21.6358 33.9224 21.6264C33.7824 21.6264 33.6378 21.6218 33.4884 21.6124C33.3391 21.6124 33.1944 21.6078 33.0544 21.5984C32.9144 21.5984 32.8118 21.5984 32.7464 21.5984H32.0184C31.9531 21.5984 31.8551 21.5984 31.7244 21.5984C31.5938 21.6078 31.4538 21.6124 31.3044 21.6124C31.1551 21.6218 31.0151 21.6264 30.8844 21.6264C30.7538 21.6358 30.6558 21.6404 30.5904 21.6404L30.5624 21.5984L30.5904 21.1224L30.6604 21.0664C30.8004 21.0664 30.9358 21.0571 31.0664 21.0384C31.2064 21.0291 31.3138 20.9824 31.3884 20.8984C31.4631 20.8424 31.5098 20.7631 31.5284 20.6604C31.5564 20.5578 31.5798 20.4131 31.5984 20.2264C31.6078 20.0678 31.6124 19.9184 31.6124 19.7784C31.6218 19.6478 31.6264 19.4984 31.6264 19.3304C31.6358 19.1624 31.6404 18.9571 31.6404 18.7144C31.6498 18.4811 31.6544 18.1731 31.6544 17.7904V15.3964C31.6544 15.0138 31.6544 14.7011 31.6544 14.4584C31.6544 14.2064 31.6498 13.9918 31.6404 13.8144C31.6404 13.6371 31.6358 13.4784 31.6264 13.3384C31.6171 13.1984 31.6078 13.0444 31.5984 12.8764C31.5891 12.7738 31.5658 12.6851 31.5284 12.6104C31.4911 12.5264 31.4584 12.4704 31.4304 12.4424C31.3464 12.3304 31.2344 12.2651 31.0944 12.2464C30.9544 12.2184 30.8051 12.2044 30.6464 12.2044L30.5904 12.1484V11.6724L30.6464 11.6304H30.8984C31.0104 11.6304 31.1411 11.6304 31.2904 11.6304C31.4398 11.6304 31.5938 11.6304 31.7524 11.6304C31.9204 11.6211 32.0791 11.6164 32.2284 11.6164C32.3871 11.6071 32.5271 11.5931 32.6484 11.5744L33.1384 11.5044L33.2224 11.7704C33.1944 11.8358 33.1758 11.9571 33.1664 12.1344C33.1571 12.3024 33.1524 12.4471 33.1524 12.5684L33.1944 12.5964ZM36.9324 14.7104C36.9324 14.4304 36.8951 14.1598 36.8204 13.8984C36.7551 13.6278 36.6524 13.3898 36.5124 13.1844C36.3724 12.9698 36.1904 12.8018 35.9664 12.6804C35.7518 12.5498 35.4951 12.4844 35.1964 12.4844C34.8791 12.4844 34.5944 12.5404 34.3424 12.6524C34.0998 12.7551 33.8898 12.8858 33.7124 13.0444C33.5444 13.1938 33.4091 13.3524 33.3064 13.5204C33.2131 13.6884 33.1618 13.8331 33.1524 13.9544V15.5084C33.1711 15.6298 33.2224 15.7791 33.3064 15.9564C33.3998 16.1244 33.5258 16.2924 33.6844 16.4604C33.8524 16.6191 34.0578 16.7544 34.3004 16.8664C34.5431 16.9784 34.8324 17.0344 35.1684 17.0344C35.4764 17.0344 35.7424 16.9691 35.9664 16.8384C36.1904 16.6984 36.3724 16.5211 36.5124 16.3064C36.6618 16.0918 36.7691 15.8444 36.8344 15.5644C36.8998 15.2844 36.9324 14.9998 36.9324 14.7104Z" fill="#1A1B25"/>
<path d="M44.2407 8.69043C44.9594 8.69043 45.5987 8.81643 46.1587 9.06843C46.7188 9.32043 47.1901 9.66576 47.5728 10.1044C47.9554 10.5338 48.2448 11.0331 48.4408 11.6024C48.6461 12.1718 48.7487 12.7691 48.7487 13.3944C48.7487 14.0104 48.6507 14.6078 48.4548 15.1864C48.2588 15.7558 47.9647 16.2598 47.5728 16.6984C47.1901 17.1371 46.7094 17.4918 46.1307 17.7624C45.5614 18.0238 44.8988 18.1544 44.1427 18.1544C43.4147 18.1544 42.7754 18.0284 42.2248 17.7764C41.6741 17.5244 41.2121 17.1884 40.8387 16.7684C40.4747 16.3391 40.1994 15.8444 40.0127 15.2844C39.8261 14.7151 39.7327 14.1178 39.7327 13.4924C39.7327 12.8298 39.8354 12.2091 40.0407 11.6304C40.2461 11.0424 40.5401 10.5338 40.9227 10.1044C41.3054 9.66576 41.7768 9.32043 42.3368 9.06843C42.8967 8.81643 43.5314 8.69043 44.2407 8.69043ZM44.2267 16.9924C44.6841 16.9924 45.0901 16.8991 45.4448 16.7124C45.8088 16.5164 46.1121 16.2598 46.3547 15.9424C46.5974 15.6158 46.7841 15.2378 46.9147 14.8084C47.0454 14.3698 47.1107 13.9031 47.1107 13.4084C47.1107 12.9044 47.0407 12.4378 46.9007 12.0084C46.7701 11.5698 46.5741 11.1918 46.3127 10.8744C46.0607 10.5571 45.7528 10.3098 45.3888 10.1324C45.0248 9.94576 44.6141 9.85243 44.1567 9.85243C43.7087 9.85243 43.3121 9.9411 42.9668 10.1184C42.6214 10.2958 42.3321 10.5431 42.0988 10.8604C41.8654 11.1778 41.6881 11.5558 41.5667 11.9944C41.4454 12.4238 41.3848 12.8904 41.3848 13.3944C41.3848 13.9544 41.4548 14.4584 41.5947 14.9064C41.7347 15.3451 41.9307 15.7184 42.1828 16.0264C42.4348 16.3344 42.7334 16.5724 43.0788 16.7404C43.4241 16.9084 43.8067 16.9924 44.2267 16.9924Z" fill="#1A1B25"/>
<path d="M52.393 12.7784C52.6077 12.3678 52.9017 12.0271 53.275 11.7564C53.6483 11.4858 54.087 11.3504 54.591 11.3504C54.8803 11.3504 55.165 11.3878 55.445 11.4624C55.725 11.5371 55.977 11.6538 56.201 11.8124C56.4343 11.9711 56.6257 12.1764 56.775 12.4284C56.9337 12.6711 57.0364 12.9604 57.083 13.2964C57.111 13.5391 57.125 13.7958 57.125 14.0664C57.1343 14.3371 57.139 14.6078 57.139 14.8784C57.1483 15.1958 57.153 15.4898 57.153 15.7604C57.153 16.0218 57.153 16.3111 57.153 16.6284C57.153 16.8431 57.1763 17.0064 57.223 17.1184C57.279 17.2211 57.3443 17.2911 57.419 17.3284C57.5217 17.3844 57.629 17.4218 57.741 17.4404C57.8624 17.4591 57.9977 17.4684 58.147 17.4684L58.189 17.5244L58.217 18.0004L58.189 18.0564C57.993 18.0378 57.7737 18.0238 57.531 18.0144C57.2977 18.0051 57.069 18.0004 56.845 18.0004C56.621 18.0004 56.397 18.0004 56.173 18.0004C55.949 18.0098 55.739 18.0238 55.543 18.0424L55.445 17.7624C55.473 17.6411 55.4963 17.4591 55.515 17.2164C55.543 16.9738 55.5617 16.7778 55.571 16.6284C55.5897 16.2738 55.6037 15.9424 55.613 15.6344C55.6223 15.3264 55.627 15.0511 55.627 14.8084C55.627 14.5938 55.6223 14.3604 55.613 14.1084C55.6037 13.8564 55.571 13.6371 55.515 13.4504C55.4403 13.1518 55.2864 12.9324 55.053 12.7924C54.829 12.6431 54.5677 12.5684 54.269 12.5684C53.989 12.5684 53.7323 12.6198 53.499 12.7224C53.2657 12.8251 53.065 12.9511 52.897 13.1004C52.7383 13.2404 52.6124 13.3898 52.519 13.5484C52.4257 13.7071 52.379 13.8471 52.379 13.9684V15.4104C52.379 15.5971 52.379 15.7511 52.379 15.8724C52.379 15.9844 52.379 16.0824 52.379 16.1664C52.3883 16.2504 52.393 16.3298 52.393 16.4044C52.4023 16.4698 52.4117 16.5444 52.421 16.6284C52.4397 16.8244 52.477 16.9738 52.533 17.0764C52.5984 17.1698 52.6684 17.2491 52.743 17.3144C52.8177 17.3891 52.9063 17.4358 53.009 17.4544C53.1117 17.4638 53.233 17.4684 53.373 17.4684L53.443 17.5384L53.471 18.0004L53.443 18.0564C53.3777 18.0564 53.2797 18.0518 53.149 18.0424C53.0183 18.0331 52.8783 18.0238 52.729 18.0144C52.5797 18.0144 52.4397 18.0098 52.309 18.0004C52.1783 18.0004 52.0803 18.0004 52.015 18.0004H51.245C51.1797 18.0004 51.077 18.0004 50.937 18.0004C50.8064 18.0098 50.6663 18.0144 50.517 18.0144C50.377 18.0238 50.237 18.0331 50.097 18.0424C49.9664 18.0518 49.8683 18.0564 49.803 18.0564L49.789 18.0004L49.817 17.5244L49.859 17.4684C50.0084 17.4684 50.139 17.4638 50.251 17.4544C50.3723 17.4358 50.4703 17.3891 50.545 17.3144C50.6103 17.2491 50.671 17.1651 50.727 17.0624C50.783 16.9598 50.8204 16.8151 50.839 16.6284C50.8484 16.5631 50.853 16.4978 50.853 16.4324C50.8624 16.3671 50.867 16.2971 50.867 16.2224C50.8764 16.1478 50.881 16.0591 50.881 15.9564C50.881 15.8538 50.881 15.7278 50.881 15.5784V14.1364C50.881 13.9591 50.881 13.8098 50.881 13.6884C50.881 13.5671 50.8764 13.4598 50.867 13.3664C50.867 13.2731 50.8624 13.1891 50.853 13.1144C50.853 13.0398 50.8484 12.9604 50.839 12.8764C50.8204 12.7831 50.7924 12.6944 50.755 12.6104C50.7177 12.5264 50.685 12.4704 50.657 12.4424C50.5637 12.3211 50.447 12.2511 50.307 12.2324C50.167 12.2138 50.0224 12.2044 49.873 12.2044L49.817 12.1484V11.6724L49.873 11.6304H50.587C50.8017 11.6304 51.0303 11.6304 51.273 11.6304C51.525 11.6211 51.7443 11.6024 51.931 11.5744L52.421 11.5044L52.505 11.7704C52.4304 11.8731 52.3837 12.0178 52.365 12.2044C52.3557 12.3818 52.351 12.5638 52.351 12.7504L52.393 12.7784Z" fill="#1A1B25"/>
<path d="M64.9044 14.4304L64.5684 14.6824C64.0644 14.6824 63.5651 14.6871 63.0704 14.6964C62.5851 14.7058 62.0858 14.7104 61.5724 14.7104H60.4244C60.4151 14.7758 60.4104 14.8411 60.4104 14.9064C60.4104 14.9624 60.4104 15.0184 60.4104 15.0744C60.4104 15.3171 60.4524 15.5598 60.5364 15.8024C60.6204 16.0451 60.7511 16.2644 60.9284 16.4604C61.1151 16.6471 61.3484 16.8011 61.6284 16.9224C61.9084 17.0344 62.2491 17.0904 62.6504 17.0904C62.9398 17.0904 63.2431 17.0531 63.5604 16.9784C63.8871 16.8944 64.1904 16.7871 64.4704 16.6564L64.7084 16.7544V17.2584L64.5684 17.4124C64.3444 17.5898 64.0131 17.7578 63.5744 17.9164C63.1451 18.0751 62.6784 18.1544 62.1744 18.1544C61.6798 18.1544 61.2271 18.0751 60.8164 17.9164C60.4151 17.7484 60.0651 17.5151 59.7664 17.2164C59.4771 16.9178 59.2484 16.5631 59.0804 16.1524C58.9218 15.7418 58.8424 15.2844 58.8424 14.7804C58.8424 14.2671 58.9264 13.8004 59.0944 13.3804C59.2624 12.9604 59.4911 12.6011 59.7804 12.3024C60.0791 12.0038 60.4244 11.7704 60.8164 11.6024C61.2178 11.4344 61.6471 11.3504 62.1044 11.3504C62.3471 11.3504 62.6178 11.3831 62.9164 11.4484C63.2244 11.5138 63.5184 11.6398 63.7984 11.8264C64.0784 12.0038 64.3304 12.2604 64.5544 12.5964C64.7784 12.9231 64.9324 13.3571 65.0164 13.8984L64.9044 14.4304ZM62.1184 12.4004C61.6611 12.4004 61.2924 12.5404 61.0124 12.8204C60.7418 13.0911 60.5691 13.4084 60.4944 13.7724H61.1944C61.5211 13.7724 61.8431 13.7678 62.1604 13.7584C62.4778 13.7398 62.7998 13.7304 63.1264 13.7304C63.2478 13.7304 63.3364 13.6978 63.3924 13.6324C63.4484 13.5578 63.4764 13.4831 63.4764 13.4084C63.4764 13.1284 63.3411 12.8904 63.0704 12.6944C62.7998 12.4984 62.4824 12.4004 62.1184 12.4004Z" fill="#1A1B25"/>
</svg>
