<svg width="1286" height="38" viewBox="0 0 1286 38" fill="none" xmlns="http://www.w3.org/2000/svg">
<rect width="281" height="16" fill="#8D7FFA"/>
<path d="M10.204 31.776V33H4.468C4.476 31.728 5.092 30.668 6.316 29.82C6.7 29.564 7.08 29.308 7.456 29.052C7.888 28.748 8.212 28.46 8.428 28.188C8.7 27.836 8.84 27.46 8.848 27.06C8.856 26.676 8.768 26.352 8.584 26.088C8.344 25.744 7.96 25.572 7.432 25.572C6.512 25.572 6.032 26.272 5.992 27.672H4.624C4.624 26.712 4.872 25.94 5.368 25.356C5.888 24.74 6.604 24.432 7.516 24.432C8.444 24.432 9.152 24.728 9.64 25.32C10.024 25.792 10.216 26.356 10.216 27.012C10.216 28.028 9.592 28.972 8.344 29.844C7.88 30.156 7.416 30.468 6.952 30.78C6.496 31.132 6.216 31.464 6.112 31.776H10.204ZM11.244 29.196L12.144 24.6H16.488V25.824H13.164L12.732 27.96L12.756 27.984C13.14 27.56 13.656 27.348 14.304 27.348C15.12 27.348 15.768 27.616 16.248 28.152C16.704 28.664 16.932 29.332 16.932 30.156C16.932 30.932 16.708 31.6 16.26 32.16C15.724 32.832 14.98 33.168 14.028 33.168C13.188 33.168 12.504 32.952 11.976 32.52C11.416 32.064 11.12 31.428 11.088 30.612H12.456C12.496 31.06 12.652 31.408 12.924 31.656C13.196 31.904 13.556 32.028 14.004 32.028C15.044 32.028 15.564 31.412 15.564 30.18C15.564 29.684 15.436 29.276 15.18 28.956C14.892 28.604 14.488 28.428 13.968 28.428C13.256 28.428 12.804 28.684 12.612 29.196H11.244ZM18.1639 33V31.38H19.8319V33H18.1639ZM23.9158 25.572C23.4438 25.572 23.0758 25.744 22.8118 26.088C22.5718 26.4 22.4518 26.8 22.4518 27.288C22.4518 27.784 22.5718 28.192 22.8118 28.512C23.0758 28.872 23.4438 29.052 23.9158 29.052C24.4038 29.052 24.7838 28.872 25.0558 28.512C25.3118 28.192 25.4398 27.784 25.4398 27.288C25.4398 26.808 25.3078 26.404 25.0438 26.076C24.7798 25.74 24.4038 25.572 23.9158 25.572ZM21.2398 30.876H22.6078C22.6398 31.22 22.7638 31.5 22.9798 31.716C23.1958 31.924 23.4798 32.028 23.8318 32.028C24.4798 32.028 24.9438 31.684 25.2238 30.996C25.3918 30.596 25.5078 29.98 25.5718 29.148L25.5478 29.124C25.1718 29.796 24.5678 30.132 23.7358 30.132C22.9438 30.132 22.3038 29.876 21.8158 29.364C21.3278 28.844 21.0838 28.156 21.0838 27.3C21.0838 26.46 21.3398 25.772 21.8518 25.236C22.3718 24.7 23.0798 24.432 23.9758 24.432C25.0798 24.432 25.8718 24.856 26.3518 25.704C26.7438 26.408 26.9398 27.448 26.9398 28.824C26.9398 29.992 26.7078 30.968 26.2438 31.752C25.6838 32.696 24.8598 33.168 23.7718 33.168C23.0918 33.168 22.5078 32.956 22.0198 32.532C21.5318 32.1 21.2718 31.548 21.2398 30.876ZM30.0798 29.1V28.08C30.5998 28.104 31.0238 28.016 31.3518 27.816C31.7438 27.592 31.9398 27.24 31.9398 26.76C31.9398 26.408 31.8158 26.124 31.5678 25.908C31.3278 25.684 31.0158 25.572 30.6318 25.572C30.1838 25.572 29.8358 25.744 29.5878 26.088C29.3398 26.424 29.2238 26.824 29.2398 27.288H27.8718C27.9118 26.448 28.1718 25.768 28.6518 25.248C29.1638 24.704 29.8318 24.432 30.6558 24.432C31.3678 24.432 31.9718 24.62 32.4678 24.996C33.0278 25.412 33.3078 25.972 33.3078 26.676C33.3078 27.596 32.9118 28.196 32.1198 28.476V28.5C32.5918 28.596 32.9638 28.836 33.2358 29.22C33.5078 29.596 33.6438 30.056 33.6438 30.6C33.6438 31.368 33.3478 31.992 32.7558 32.472C32.1958 32.936 31.4998 33.168 30.6678 33.168C29.7238 33.168 28.9918 32.9 28.4718 32.364C27.9838 31.852 27.7318 31.144 27.7158 30.24H29.0838C29.0678 30.768 29.1958 31.192 29.4678 31.512C29.7478 31.856 30.1478 32.028 30.6678 32.028C31.1398 32.028 31.5238 31.896 31.8198 31.632C32.1238 31.36 32.2758 30.992 32.2758 30.528C32.2758 29.512 31.5438 29.036 30.0798 29.1ZM37.1317 33.288L41.7997 24.312H42.7117L38.0677 33.288H37.1317ZM43.0237 33.168C42.3357 33.168 41.8197 32.932 41.4757 32.46C41.1717 32.052 41.0197 31.492 41.0197 30.78C41.0197 30.084 41.1797 29.524 41.4997 29.1C41.8517 28.628 42.3597 28.392 43.0237 28.392C43.6877 28.392 44.1957 28.628 44.5477 29.1C44.8677 29.524 45.0277 30.084 45.0277 30.78C45.0277 31.492 44.8757 32.052 44.5717 32.46C44.2277 32.932 43.7117 33.168 43.0237 33.168ZM42.0997 30.78C42.0997 31.852 42.4037 32.388 43.0117 32.388C43.6357 32.388 43.9477 31.852 43.9477 30.78C43.9477 29.708 43.6357 29.172 43.0117 29.172C42.4037 29.172 42.0997 29.708 42.0997 30.78ZM36.9997 29.208C36.3117 29.208 35.7957 28.972 35.4517 28.5C35.1477 28.092 34.9957 27.532 34.9957 26.82C34.9957 26.124 35.1557 25.564 35.4757 25.14C35.8277 24.668 36.3357 24.432 36.9997 24.432C37.6637 24.432 38.1717 24.668 38.5237 25.14C38.8437 25.564 39.0037 26.124 39.0037 26.82C39.0037 27.532 38.8517 28.092 38.5477 28.5C38.2037 28.972 37.6877 29.208 36.9997 29.208ZM36.0757 26.82C36.0757 27.892 36.3797 28.428 36.9877 28.428C37.6117 28.428 37.9237 27.892 37.9237 26.82C37.9237 25.748 37.6117 25.212 36.9877 25.212C36.3797 25.212 36.0757 25.748 36.0757 26.82ZM55.6276 28.872H54.2596C54.1476 28.096 53.6756 27.708 52.8436 27.708C52.3876 27.708 52.0156 27.848 51.7276 28.128C51.3356 28.512 51.1396 29.124 51.1396 29.964C51.1396 30.548 51.2636 31.032 51.5116 31.416C51.8076 31.864 52.2316 32.088 52.7836 32.088C53.1836 32.088 53.5116 31.964 53.7676 31.716C54.0316 31.46 54.1956 31.112 54.2596 30.672H55.6276C55.3636 32.336 54.4156 33.168 52.7836 33.168C51.8396 33.168 51.0956 32.86 50.5516 32.244C50.0316 31.668 49.7716 30.908 49.7716 29.964C49.7716 28.98 50.0276 28.188 50.5396 27.588C51.0836 26.948 51.8476 26.628 52.8316 26.628C53.5916 26.628 54.2196 26.812 54.7156 27.18C55.2596 27.58 55.5636 28.144 55.6276 28.872ZM59.5835 32.088C60.1595 32.088 60.6075 31.856 60.9275 31.392C61.2075 30.992 61.3475 30.492 61.3475 29.892C61.3475 29.3 61.2075 28.804 60.9275 28.404C60.6075 27.94 60.1595 27.708 59.5835 27.708C59.0075 27.708 58.5595 27.94 58.2395 28.404C57.9595 28.804 57.8195 29.3 57.8195 29.892C57.8195 30.492 57.9595 30.992 58.2395 31.392C58.5595 31.856 59.0075 32.088 59.5835 32.088ZM59.5835 33.168C58.6075 33.168 57.8355 32.86 57.2675 32.244C56.7235 31.652 56.4515 30.868 56.4515 29.892C56.4515 28.924 56.7275 28.14 57.2795 27.54C57.8395 26.932 58.6075 26.628 59.5835 26.628C60.5595 26.628 61.3315 26.936 61.8995 27.552C62.4435 28.144 62.7155 28.924 62.7155 29.892C62.7155 30.868 62.4435 31.652 61.8995 32.244C61.3315 32.86 60.5595 33.168 59.5835 33.168ZM63.8528 33V26.796H65.1488V27.66H65.1848C65.6408 26.972 66.2768 26.628 67.0928 26.628C67.9808 26.628 68.5608 26.972 68.8328 27.66C69.3288 26.972 69.9768 26.628 70.7768 26.628C72.1608 26.628 72.8528 27.324 72.8528 28.716V33H71.4848V29.376C71.4848 28.792 71.4288 28.392 71.3168 28.176C71.1648 27.864 70.8448 27.708 70.3568 27.708C69.4768 27.708 69.0368 28.26 69.0368 29.364V33H67.6688V29.016C67.6688 28.568 67.5848 28.24 67.4168 28.032C67.2568 27.816 66.9768 27.708 66.5768 27.708C66.2008 27.708 65.8808 27.852 65.6168 28.14C65.3528 28.428 65.2208 28.82 65.2208 29.316V33H63.8528ZM74.2942 33V26.796H75.5902V27.66H75.6262C76.0822 26.972 76.7182 26.628 77.5342 26.628C78.4222 26.628 79.0022 26.972 79.2742 27.66C79.7702 26.972 80.4182 26.628 81.2182 26.628C82.6022 26.628 83.2942 27.324 83.2942 28.716V33H81.9262V29.376C81.9262 28.792 81.8702 28.392 81.7582 28.176C81.6062 27.864 81.2862 27.708 80.7982 27.708C79.9182 27.708 79.4782 28.26 79.4782 29.364V33H78.1102V29.016C78.1102 28.568 78.0262 28.24 77.8582 28.032C77.6982 27.816 77.4182 27.708 77.0182 27.708C76.6422 27.708 76.3222 27.852 76.0582 28.14C75.7942 28.428 75.6622 28.82 75.6622 29.316V33H74.2942ZM87.5796 32.088C88.1556 32.088 88.6036 31.856 88.9236 31.392C89.2036 30.992 89.3436 30.492 89.3436 29.892C89.3436 29.3 89.2036 28.804 88.9236 28.404C88.6036 27.94 88.1556 27.708 87.5796 27.708C87.0036 27.708 86.5556 27.94 86.2356 28.404C85.9556 28.804 85.8156 29.3 85.8156 29.892C85.8156 30.492 85.9556 30.992 86.2356 31.392C86.5556 31.856 87.0036 32.088 87.5796 32.088ZM87.5796 33.168C86.6036 33.168 85.8316 32.86 85.2636 32.244C84.7196 31.652 84.4476 30.868 84.4476 29.892C84.4476 28.924 84.7236 28.14 85.2756 27.54C85.8356 26.932 86.6036 26.628 87.5796 26.628C88.5556 26.628 89.3276 26.936 89.8956 27.552C90.4396 28.144 90.7116 28.924 90.7116 29.892C90.7116 30.868 90.4396 31.652 89.8956 32.244C89.3276 32.86 88.5556 33.168 87.5796 33.168ZM91.8489 33V26.796H93.1449V27.708L93.1689 27.732C93.6089 26.996 94.2529 26.628 95.1009 26.628C95.7889 26.628 96.3249 26.808 96.7089 27.168C97.1009 27.528 97.2969 28.052 97.2969 28.74V33H95.9289V29.1C95.9289 28.172 95.5249 27.708 94.7169 27.708C94.2689 27.708 93.9049 27.864 93.6249 28.176C93.3529 28.488 93.2169 28.876 93.2169 29.34V33H91.8489Z" fill="#6A7383"/>
<rect x="282" width="180" height="16" fill="#C3BCFA"/>
<path d="M286.636 27.072V25.992C287.26 26 287.788 25.896 288.22 25.68C288.7 25.432 288.988 25.072 289.084 24.6H290.2V33H288.7V27.072H286.636ZM293.088 25.824V24.6H298.836V25.74C296.94 27.884 295.896 30.304 295.704 33H294.204C294.292 31.728 294.64 30.444 295.248 29.148C295.808 27.956 296.54 26.848 297.444 25.824H293.088ZM300.164 33V31.38H301.832V33H300.164ZM306.096 32.028C306.56 32.028 306.928 31.848 307.2 31.488C307.448 31.16 307.572 30.756 307.572 30.276C307.572 29.796 307.444 29.392 307.188 29.064C306.932 28.728 306.568 28.56 306.096 28.56C305.616 28.56 305.24 28.732 304.968 29.076C304.712 29.388 304.584 29.788 304.584 30.276C304.584 30.764 304.712 31.168 304.968 31.488C305.248 31.848 305.624 32.028 306.096 32.028ZM308.784 26.724H307.416C307.384 26.38 307.26 26.104 307.044 25.896C306.828 25.68 306.544 25.572 306.192 25.572C305.544 25.572 305.08 25.912 304.8 26.592C304.632 27 304.516 27.62 304.452 28.452L304.476 28.476C304.852 27.812 305.456 27.48 306.288 27.48C307.104 27.48 307.756 27.748 308.244 28.284C308.708 28.804 308.94 29.476 308.94 30.3C308.94 31.124 308.68 31.808 308.16 32.352C307.648 32.896 306.976 33.168 306.144 33.168C305 33.168 304.18 32.74 303.684 31.884C303.284 31.188 303.084 30.152 303.084 28.776C303.084 27.608 303.316 26.632 303.78 25.848C304.34 24.904 305.164 24.432 306.252 24.432C306.932 24.432 307.516 24.648 308.004 25.08C308.492 25.504 308.752 26.052 308.784 26.724ZM312.68 32.028C313.704 32.028 314.216 30.952 314.216 28.8C314.216 26.648 313.704 25.572 312.68 25.572C311.656 25.572 311.144 26.648 311.144 28.8C311.144 30.952 311.656 32.028 312.68 32.028ZM312.68 24.432C313.768 24.432 314.552 24.92 315.032 25.896C315.4 26.632 315.584 27.6 315.584 28.8C315.584 30 315.4 30.968 315.032 31.704C314.552 32.68 313.768 33.168 312.68 33.168C311.592 33.168 310.808 32.68 310.328 31.704C309.96 30.968 309.776 30 309.776 28.8C309.776 27.6 309.96 26.632 310.328 25.896C310.808 24.92 311.592 24.432 312.68 24.432ZM319.132 33.288L323.8 24.312H324.712L320.068 33.288H319.132ZM325.024 33.168C324.336 33.168 323.82 32.932 323.476 32.46C323.172 32.052 323.02 31.492 323.02 30.78C323.02 30.084 323.18 29.524 323.5 29.1C323.852 28.628 324.36 28.392 325.024 28.392C325.688 28.392 326.196 28.628 326.548 29.1C326.868 29.524 327.028 30.084 327.028 30.78C327.028 31.492 326.876 32.052 326.572 32.46C326.228 32.932 325.712 33.168 325.024 33.168ZM324.1 30.78C324.1 31.852 324.404 32.388 325.012 32.388C325.636 32.388 325.948 31.852 325.948 30.78C325.948 29.708 325.636 29.172 325.012 29.172C324.404 29.172 324.1 29.708 324.1 30.78ZM319 29.208C318.312 29.208 317.796 28.972 317.452 28.5C317.148 28.092 316.996 27.532 316.996 26.82C316.996 26.124 317.156 25.564 317.476 25.14C317.828 24.668 318.336 24.432 319 24.432C319.664 24.432 320.172 24.668 320.524 25.14C320.844 25.564 321.004 26.124 321.004 26.82C321.004 27.532 320.852 28.092 320.548 28.5C320.204 28.972 319.688 29.208 319 29.208ZM318.076 26.82C318.076 27.892 318.38 28.428 318.988 28.428C319.612 28.428 319.924 27.892 319.924 26.82C319.924 25.748 319.612 25.212 318.988 25.212C318.38 25.212 318.076 25.748 318.076 26.82ZM331.748 30.144H333.248C333.248 30.768 333.46 31.24 333.884 31.56C334.26 31.84 334.772 31.98 335.42 31.98C336.036 31.98 336.504 31.844 336.824 31.572C337.096 31.34 337.232 31.044 337.232 30.684C337.232 30.156 336.996 29.804 336.524 29.628C336.46 29.604 335.608 29.368 333.968 28.92C332.704 28.576 332.072 27.852 332.072 26.748C332.072 25.94 332.4 25.304 333.056 24.84C333.64 24.432 334.356 24.228 335.204 24.228C336.14 24.228 336.912 24.46 337.52 24.924C338.168 25.428 338.492 26.108 338.492 26.964H336.992C336.928 25.956 336.312 25.452 335.144 25.452C334.728 25.452 334.38 25.528 334.1 25.68C333.748 25.88 333.572 26.176 333.572 26.568C333.572 27.12 333.912 27.488 334.592 27.672C335.272 27.848 336.096 28.068 337.064 28.332C337.6 28.492 338.02 28.788 338.324 29.22C338.596 29.612 338.732 30.044 338.732 30.516C338.732 31.412 338.376 32.1 337.664 32.58C337.048 32.996 336.268 33.204 335.324 33.204C334.284 33.204 333.448 32.96 332.816 32.472C332.12 31.936 331.764 31.16 331.748 30.144ZM345.481 30.252H340.921C340.921 30.772 341.057 31.2 341.329 31.536C341.625 31.904 342.045 32.088 342.589 32.088C343.357 32.088 343.861 31.744 344.101 31.056H345.397C345.253 31.72 344.921 32.24 344.401 32.616C343.889 32.984 343.285 33.168 342.589 33.168C341.637 33.168 340.893 32.868 340.357 32.268C339.821 31.668 339.553 30.88 339.553 29.904C339.553 28.992 339.821 28.224 340.357 27.6C340.925 26.952 341.657 26.628 342.553 26.628C343.425 26.628 344.141 26.948 344.701 27.588C345.237 28.188 345.505 28.924 345.505 29.796C345.505 29.948 345.497 30.1 345.481 30.252ZM340.921 29.352H344.113C344.089 28.896 343.933 28.508 343.645 28.188C343.365 27.868 343.001 27.708 342.553 27.708C342.089 27.708 341.705 27.864 341.401 28.176C341.097 28.488 340.937 28.88 340.921 29.352ZM346.521 33V26.796H347.805V27.996H347.829C347.909 27.652 348.129 27.34 348.489 27.06C348.849 26.772 349.233 26.628 349.641 26.628C349.745 26.628 349.917 26.64 350.157 26.664V27.984C349.837 27.944 349.641 27.924 349.569 27.924C349.081 27.924 348.685 28.108 348.381 28.476C348.053 28.86 347.889 29.384 347.889 30.048V33H346.521ZM350.776 33V26.796H352.144V33H350.776ZM350.776 25.728V24.432H352.144V25.728H350.776ZM359.262 30.252H354.702C354.702 30.772 354.838 31.2 355.11 31.536C355.406 31.904 355.826 32.088 356.37 32.088C357.138 32.088 357.642 31.744 357.882 31.056H359.178C359.034 31.72 358.702 32.24 358.182 32.616C357.67 32.984 357.066 33.168 356.37 33.168C355.418 33.168 354.674 32.868 354.138 32.268C353.602 31.668 353.334 30.88 353.334 29.904C353.334 28.992 353.602 28.224 354.138 27.6C354.706 26.952 355.438 26.628 356.334 26.628C357.206 26.628 357.922 26.948 358.482 27.588C359.018 28.188 359.286 28.924 359.286 29.796C359.286 29.948 359.278 30.1 359.262 30.252ZM354.702 29.352H357.894C357.87 28.896 357.714 28.508 357.426 28.188C357.146 27.868 356.782 27.708 356.334 27.708C355.87 27.708 355.486 27.864 355.182 28.176C354.878 28.488 354.718 28.88 354.702 29.352ZM359.966 31.008H361.334C361.398 31.728 361.866 32.088 362.738 32.088C363.682 32.088 364.142 31.816 364.118 31.272C364.102 30.888 363.742 30.612 363.038 30.444C361.862 30.156 361.226 29.988 361.13 29.94C360.442 29.636 360.098 29.124 360.098 28.404C360.098 27.788 360.39 27.324 360.974 27.012C361.438 26.756 362.01 26.628 362.69 26.628C363.386 26.628 363.958 26.772 364.406 27.06C364.91 27.396 365.202 27.888 365.282 28.536H363.854C363.75 27.984 363.33 27.708 362.594 27.708C361.842 27.708 361.466 27.92 361.466 28.344C361.466 28.632 361.678 28.852 362.102 29.004C362.182 29.036 362.642 29.148 363.482 29.34C364.106 29.484 364.566 29.66 364.862 29.868C365.278 30.172 365.486 30.6 365.486 31.152C365.486 31.832 365.186 32.352 364.586 32.712C364.082 33.016 363.458 33.168 362.714 33.168C361.898 33.168 361.25 32.992 360.77 32.64C360.242 32.256 359.974 31.712 359.966 31.008ZM373.117 25.908L371.821 29.592H374.437L373.153 25.908H373.117ZM369.061 33L372.349 24.432H373.945L377.245 33H375.637L374.833 30.732H371.413L370.609 33H369.061Z" fill="#6A7383"/>
<rect x="463" width="180" height="16" fill="#C3BCFA"/>
<path d="M467.636 27.072V25.992C468.26 26 468.788 25.896 469.22 25.68C469.7 25.432 469.988 25.072 470.084 24.6H471.2V33H469.7V27.072H467.636ZM479.932 29.928V31.008H478.852V33H477.556V31.008H473.956V29.652L477.556 24.6H478.852V29.928H479.932ZM477.532 26.232L475.012 29.928H477.556V26.232H477.532ZM481.164 33V31.38H482.832V33H481.164ZM487.096 32.028C487.56 32.028 487.928 31.848 488.2 31.488C488.448 31.16 488.572 30.756 488.572 30.276C488.572 29.796 488.444 29.392 488.188 29.064C487.932 28.728 487.568 28.56 487.096 28.56C486.616 28.56 486.24 28.732 485.968 29.076C485.712 29.388 485.584 29.788 485.584 30.276C485.584 30.764 485.712 31.168 485.968 31.488C486.248 31.848 486.624 32.028 487.096 32.028ZM489.784 26.724H488.416C488.384 26.38 488.26 26.104 488.044 25.896C487.828 25.68 487.544 25.572 487.192 25.572C486.544 25.572 486.08 25.912 485.8 26.592C485.632 27 485.516 27.62 485.452 28.452L485.476 28.476C485.852 27.812 486.456 27.48 487.288 27.48C488.104 27.48 488.756 27.748 489.244 28.284C489.708 28.804 489.94 29.476 489.94 30.3C489.94 31.124 489.68 31.808 489.16 32.352C488.648 32.896 487.976 33.168 487.144 33.168C486 33.168 485.18 32.74 484.684 31.884C484.284 31.188 484.084 30.152 484.084 28.776C484.084 27.608 484.316 26.632 484.78 25.848C485.34 24.904 486.164 24.432 487.252 24.432C487.932 24.432 488.516 24.648 489.004 25.08C489.492 25.504 489.752 26.052 489.784 26.724ZM493.68 32.088C494.144 32.088 494.524 31.948 494.82 31.668C495.124 31.388 495.276 31.008 495.276 30.528C495.276 30.072 495.124 29.712 494.82 29.448C494.524 29.184 494.144 29.052 493.68 29.052C493.216 29.052 492.832 29.184 492.528 29.448C492.232 29.712 492.084 30.072 492.084 30.528C492.084 31.008 492.232 31.388 492.528 31.668C492.832 31.948 493.216 32.088 493.68 32.088ZM493.68 33.168C492.808 33.168 492.096 32.932 491.544 32.46C490.992 31.98 490.716 31.336 490.716 30.528C490.716 30.008 490.852 29.568 491.124 29.208C491.404 28.84 491.78 28.596 492.252 28.476V28.464C491.46 28.152 491.064 27.572 491.064 26.724C491.064 26.004 491.292 25.444 491.748 25.044C492.204 24.636 492.848 24.432 493.68 24.432C494.512 24.432 495.156 24.636 495.612 25.044C496.068 25.444 496.296 26.004 496.296 26.724C496.296 27.572 495.9 28.152 495.108 28.464V28.476C495.58 28.596 495.952 28.84 496.224 29.208C496.504 29.568 496.644 30.008 496.644 30.528C496.644 31.336 496.368 31.98 495.816 32.46C495.264 32.932 494.552 33.168 493.68 33.168ZM493.68 25.512C493.296 25.512 492.98 25.628 492.732 25.86C492.484 26.084 492.36 26.396 492.36 26.796C492.36 27.18 492.48 27.484 492.72 27.708C492.968 27.924 493.288 28.032 493.68 28.032C494.072 28.032 494.388 27.924 494.628 27.708C494.876 27.484 495 27.18 495 26.796C495 26.396 494.876 26.084 494.628 25.86C494.38 25.628 494.064 25.512 493.68 25.512ZM500.132 33.288L504.8 24.312H505.712L501.068 33.288H500.132ZM506.024 33.168C505.336 33.168 504.82 32.932 504.476 32.46C504.172 32.052 504.02 31.492 504.02 30.78C504.02 30.084 504.18 29.524 504.5 29.1C504.852 28.628 505.36 28.392 506.024 28.392C506.688 28.392 507.196 28.628 507.548 29.1C507.868 29.524 508.028 30.084 508.028 30.78C508.028 31.492 507.876 32.052 507.572 32.46C507.228 32.932 506.712 33.168 506.024 33.168ZM505.1 30.78C505.1 31.852 505.404 32.388 506.012 32.388C506.636 32.388 506.948 31.852 506.948 30.78C506.948 29.708 506.636 29.172 506.012 29.172C505.404 29.172 505.1 29.708 505.1 30.78ZM500 29.208C499.312 29.208 498.796 28.972 498.452 28.5C498.148 28.092 497.996 27.532 497.996 26.82C497.996 26.124 498.156 25.564 498.476 25.14C498.828 24.668 499.336 24.432 500 24.432C500.664 24.432 501.172 24.668 501.524 25.14C501.844 25.564 502.004 26.124 502.004 26.82C502.004 27.532 501.852 28.092 501.548 28.5C501.204 28.972 500.688 29.208 500 29.208ZM499.076 26.82C499.076 27.892 499.38 28.428 499.988 28.428C500.612 28.428 500.924 27.892 500.924 26.82C500.924 25.748 500.612 25.212 499.988 25.212C499.38 25.212 499.076 25.748 499.076 26.82ZM512.748 30.144H514.248C514.248 30.768 514.46 31.24 514.884 31.56C515.26 31.84 515.772 31.98 516.42 31.98C517.036 31.98 517.504 31.844 517.824 31.572C518.096 31.34 518.232 31.044 518.232 30.684C518.232 30.156 517.996 29.804 517.524 29.628C517.46 29.604 516.608 29.368 514.968 28.92C513.704 28.576 513.072 27.852 513.072 26.748C513.072 25.94 513.4 25.304 514.056 24.84C514.64 24.432 515.356 24.228 516.204 24.228C517.14 24.228 517.912 24.46 518.52 24.924C519.168 25.428 519.492 26.108 519.492 26.964H517.992C517.928 25.956 517.312 25.452 516.144 25.452C515.728 25.452 515.38 25.528 515.1 25.68C514.748 25.88 514.572 26.176 514.572 26.568C514.572 27.12 514.912 27.488 515.592 27.672C516.272 27.848 517.096 28.068 518.064 28.332C518.6 28.492 519.02 28.788 519.324 29.22C519.596 29.612 519.732 30.044 519.732 30.516C519.732 31.412 519.376 32.1 518.664 32.58C518.048 32.996 517.268 33.204 516.324 33.204C515.284 33.204 514.448 32.96 513.816 32.472C513.12 31.936 512.764 31.16 512.748 30.144ZM526.481 30.252H521.921C521.921 30.772 522.057 31.2 522.329 31.536C522.625 31.904 523.045 32.088 523.589 32.088C524.357 32.088 524.861 31.744 525.101 31.056H526.397C526.253 31.72 525.921 32.24 525.401 32.616C524.889 32.984 524.285 33.168 523.589 33.168C522.637 33.168 521.893 32.868 521.357 32.268C520.821 31.668 520.553 30.88 520.553 29.904C520.553 28.992 520.821 28.224 521.357 27.6C521.925 26.952 522.657 26.628 523.553 26.628C524.425 26.628 525.141 26.948 525.701 27.588C526.237 28.188 526.505 28.924 526.505 29.796C526.505 29.948 526.497 30.1 526.481 30.252ZM521.921 29.352H525.113C525.089 28.896 524.933 28.508 524.645 28.188C524.365 27.868 524.001 27.708 523.553 27.708C523.089 27.708 522.705 27.864 522.401 28.176C522.097 28.488 521.937 28.88 521.921 29.352ZM527.521 33V26.796H528.805V27.996H528.829C528.909 27.652 529.129 27.34 529.489 27.06C529.849 26.772 530.233 26.628 530.641 26.628C530.745 26.628 530.917 26.64 531.157 26.664V27.984C530.837 27.944 530.641 27.924 530.569 27.924C530.081 27.924 529.685 28.108 529.381 28.476C529.053 28.86 528.889 29.384 528.889 30.048V33H527.521ZM531.776 33V26.796H533.144V33H531.776ZM531.776 25.728V24.432H533.144V25.728H531.776ZM540.262 30.252H535.702C535.702 30.772 535.838 31.2 536.11 31.536C536.406 31.904 536.826 32.088 537.37 32.088C538.138 32.088 538.642 31.744 538.882 31.056H540.178C540.034 31.72 539.702 32.24 539.182 32.616C538.67 32.984 538.066 33.168 537.37 33.168C536.418 33.168 535.674 32.868 535.138 32.268C534.602 31.668 534.334 30.88 534.334 29.904C534.334 28.992 534.602 28.224 535.138 27.6C535.706 26.952 536.438 26.628 537.334 26.628C538.206 26.628 538.922 26.948 539.482 27.588C540.018 28.188 540.286 28.924 540.286 29.796C540.286 29.948 540.278 30.1 540.262 30.252ZM535.702 29.352H538.894C538.87 28.896 538.714 28.508 538.426 28.188C538.146 27.868 537.782 27.708 537.334 27.708C536.87 27.708 536.486 27.864 536.182 28.176C535.878 28.488 535.718 28.88 535.702 29.352ZM540.966 31.008H542.334C542.398 31.728 542.866 32.088 543.738 32.088C544.682 32.088 545.142 31.816 545.118 31.272C545.102 30.888 544.742 30.612 544.038 30.444C542.862 30.156 542.226 29.988 542.13 29.94C541.442 29.636 541.098 29.124 541.098 28.404C541.098 27.788 541.39 27.324 541.974 27.012C542.438 26.756 543.01 26.628 543.69 26.628C544.386 26.628 544.958 26.772 545.406 27.06C545.91 27.396 546.202 27.888 546.282 28.536H544.854C544.75 27.984 544.33 27.708 543.594 27.708C542.842 27.708 542.466 27.92 542.466 28.344C542.466 28.632 542.678 28.852 543.102 29.004C543.182 29.036 543.642 29.148 544.482 29.34C545.106 29.484 545.566 29.66 545.862 29.868C546.278 30.172 546.486 30.6 546.486 31.152C546.486 31.832 546.186 32.352 545.586 32.712C545.082 33.016 544.458 33.168 543.714 33.168C542.898 33.168 542.25 32.992 541.77 32.64C541.242 32.256 540.974 31.712 540.966 31.008ZM552.557 29.1V31.776H555.209C556.169 31.776 556.649 31.324 556.649 30.42C556.649 29.54 556.169 29.1 555.209 29.1H552.557ZM551.057 33V24.432H555.221C556.013 24.432 556.633 24.612 557.081 24.972C557.537 25.332 557.765 25.86 557.765 26.556C557.765 27.42 557.357 28.028 556.541 28.38V28.404C557.613 28.636 558.149 29.372 558.149 30.612C558.149 31.324 557.901 31.888 557.405 32.304C556.853 32.768 556.049 33 554.993 33H551.057ZM552.557 25.656V28.02H555.005C555.373 28.02 555.673 27.916 555.905 27.708C556.145 27.5 556.265 27.208 556.265 26.832C556.265 26.048 555.845 25.656 555.005 25.656H552.557Z" fill="#6A7383"/>
<rect x="644" width="180" height="16" fill="#C3BCFA"/>
<path d="M648.636 27.072V25.992C649.26 26 649.788 25.896 650.22 25.68C650.7 25.432 650.988 25.072 651.084 24.6H652.2V33H650.7V27.072H648.636ZM658.088 32.028C658.552 32.028 658.92 31.848 659.192 31.488C659.44 31.16 659.564 30.756 659.564 30.276C659.564 29.796 659.436 29.392 659.18 29.064C658.924 28.728 658.56 28.56 658.088 28.56C657.608 28.56 657.232 28.732 656.96 29.076C656.704 29.388 656.576 29.788 656.576 30.276C656.576 30.764 656.704 31.168 656.96 31.488C657.24 31.848 657.616 32.028 658.088 32.028ZM660.776 26.724H659.408C659.376 26.38 659.252 26.104 659.036 25.896C658.82 25.68 658.536 25.572 658.184 25.572C657.536 25.572 657.072 25.912 656.792 26.592C656.624 27 656.508 27.62 656.444 28.452L656.468 28.476C656.844 27.812 657.448 27.48 658.28 27.48C659.096 27.48 659.748 27.748 660.236 28.284C660.7 28.804 660.932 29.476 660.932 30.3C660.932 31.124 660.672 31.808 660.152 32.352C659.64 32.896 658.968 33.168 658.136 33.168C656.992 33.168 656.172 32.74 655.676 31.884C655.276 31.188 655.076 30.152 655.076 28.776C655.076 27.608 655.308 26.632 655.772 25.848C656.332 24.904 657.156 24.432 658.244 24.432C658.924 24.432 659.508 24.648 659.996 25.08C660.484 25.504 660.744 26.052 660.776 26.724ZM662.164 33V31.38H663.832V33H662.164ZM668.096 32.028C668.56 32.028 668.928 31.848 669.2 31.488C669.448 31.16 669.572 30.756 669.572 30.276C669.572 29.796 669.444 29.392 669.188 29.064C668.932 28.728 668.568 28.56 668.096 28.56C667.616 28.56 667.24 28.732 666.968 29.076C666.712 29.388 666.584 29.788 666.584 30.276C666.584 30.764 666.712 31.168 666.968 31.488C667.248 31.848 667.624 32.028 668.096 32.028ZM670.784 26.724H669.416C669.384 26.38 669.26 26.104 669.044 25.896C668.828 25.68 668.544 25.572 668.192 25.572C667.544 25.572 667.08 25.912 666.8 26.592C666.632 27 666.516 27.62 666.452 28.452L666.476 28.476C666.852 27.812 667.456 27.48 668.288 27.48C669.104 27.48 669.756 27.748 670.244 28.284C670.708 28.804 670.94 29.476 670.94 30.3C670.94 31.124 670.68 31.808 670.16 32.352C669.648 32.896 668.976 33.168 668.144 33.168C667 33.168 666.18 32.74 665.684 31.884C665.284 31.188 665.084 30.152 665.084 28.776C665.084 27.608 665.316 26.632 665.78 25.848C666.34 24.904 667.164 24.432 668.252 24.432C668.932 24.432 669.516 24.648 670.004 25.08C670.492 25.504 670.752 26.052 670.784 26.724ZM674.68 32.088C675.144 32.088 675.524 31.948 675.82 31.668C676.124 31.388 676.276 31.008 676.276 30.528C676.276 30.072 676.124 29.712 675.82 29.448C675.524 29.184 675.144 29.052 674.68 29.052C674.216 29.052 673.832 29.184 673.528 29.448C673.232 29.712 673.084 30.072 673.084 30.528C673.084 31.008 673.232 31.388 673.528 31.668C673.832 31.948 674.216 32.088 674.68 32.088ZM674.68 33.168C673.808 33.168 673.096 32.932 672.544 32.46C671.992 31.98 671.716 31.336 671.716 30.528C671.716 30.008 671.852 29.568 672.124 29.208C672.404 28.84 672.78 28.596 673.252 28.476V28.464C672.46 28.152 672.064 27.572 672.064 26.724C672.064 26.004 672.292 25.444 672.748 25.044C673.204 24.636 673.848 24.432 674.68 24.432C675.512 24.432 676.156 24.636 676.612 25.044C677.068 25.444 677.296 26.004 677.296 26.724C677.296 27.572 676.9 28.152 676.108 28.464V28.476C676.58 28.596 676.952 28.84 677.224 29.208C677.504 29.568 677.644 30.008 677.644 30.528C677.644 31.336 677.368 31.98 676.816 32.46C676.264 32.932 675.552 33.168 674.68 33.168ZM674.68 25.512C674.296 25.512 673.98 25.628 673.732 25.86C673.484 26.084 673.36 26.396 673.36 26.796C673.36 27.18 673.48 27.484 673.72 27.708C673.968 27.924 674.288 28.032 674.68 28.032C675.072 28.032 675.388 27.924 675.628 27.708C675.876 27.484 676 27.18 676 26.796C676 26.396 675.876 26.084 675.628 25.86C675.38 25.628 675.064 25.512 674.68 25.512ZM681.132 33.288L685.8 24.312H686.712L682.068 33.288H681.132ZM687.024 33.168C686.336 33.168 685.82 32.932 685.476 32.46C685.172 32.052 685.02 31.492 685.02 30.78C685.02 30.084 685.18 29.524 685.5 29.1C685.852 28.628 686.36 28.392 687.024 28.392C687.688 28.392 688.196 28.628 688.548 29.1C688.868 29.524 689.028 30.084 689.028 30.78C689.028 31.492 688.876 32.052 688.572 32.46C688.228 32.932 687.712 33.168 687.024 33.168ZM686.1 30.78C686.1 31.852 686.404 32.388 687.012 32.388C687.636 32.388 687.948 31.852 687.948 30.78C687.948 29.708 687.636 29.172 687.012 29.172C686.404 29.172 686.1 29.708 686.1 30.78ZM681 29.208C680.312 29.208 679.796 28.972 679.452 28.5C679.148 28.092 678.996 27.532 678.996 26.82C678.996 26.124 679.156 25.564 679.476 25.14C679.828 24.668 680.336 24.432 681 24.432C681.664 24.432 682.172 24.668 682.524 25.14C682.844 25.564 683.004 26.124 683.004 26.82C683.004 27.532 682.852 28.092 682.548 28.5C682.204 28.972 681.688 29.208 681 29.208ZM680.076 26.82C680.076 27.892 680.38 28.428 680.988 28.428C681.612 28.428 681.924 27.892 681.924 26.82C681.924 25.748 681.612 25.212 680.988 25.212C680.38 25.212 680.076 25.748 680.076 26.82ZM693.748 30.144H695.248C695.248 30.768 695.46 31.24 695.884 31.56C696.26 31.84 696.772 31.98 697.42 31.98C698.036 31.98 698.504 31.844 698.824 31.572C699.096 31.34 699.232 31.044 699.232 30.684C699.232 30.156 698.996 29.804 698.524 29.628C698.46 29.604 697.608 29.368 695.968 28.92C694.704 28.576 694.072 27.852 694.072 26.748C694.072 25.94 694.4 25.304 695.056 24.84C695.64 24.432 696.356 24.228 697.204 24.228C698.14 24.228 698.912 24.46 699.52 24.924C700.168 25.428 700.492 26.108 700.492 26.964H698.992C698.928 25.956 698.312 25.452 697.144 25.452C696.728 25.452 696.38 25.528 696.1 25.68C695.748 25.88 695.572 26.176 695.572 26.568C695.572 27.12 695.912 27.488 696.592 27.672C697.272 27.848 698.096 28.068 699.064 28.332C699.6 28.492 700.02 28.788 700.324 29.22C700.596 29.612 700.732 30.044 700.732 30.516C700.732 31.412 700.376 32.1 699.664 32.58C699.048 32.996 698.268 33.204 697.324 33.204C696.284 33.204 695.448 32.96 694.816 32.472C694.12 31.936 693.764 31.16 693.748 30.144ZM707.481 30.252H702.921C702.921 30.772 703.057 31.2 703.329 31.536C703.625 31.904 704.045 32.088 704.589 32.088C705.357 32.088 705.861 31.744 706.101 31.056H707.397C707.253 31.72 706.921 32.24 706.401 32.616C705.889 32.984 705.285 33.168 704.589 33.168C703.637 33.168 702.893 32.868 702.357 32.268C701.821 31.668 701.553 30.88 701.553 29.904C701.553 28.992 701.821 28.224 702.357 27.6C702.925 26.952 703.657 26.628 704.553 26.628C705.425 26.628 706.141 26.948 706.701 27.588C707.237 28.188 707.505 28.924 707.505 29.796C707.505 29.948 707.497 30.1 707.481 30.252ZM702.921 29.352H706.113C706.089 28.896 705.933 28.508 705.645 28.188C705.365 27.868 705.001 27.708 704.553 27.708C704.089 27.708 703.705 27.864 703.401 28.176C703.097 28.488 702.937 28.88 702.921 29.352ZM708.521 33V26.796H709.805V27.996H709.829C709.909 27.652 710.129 27.34 710.489 27.06C710.849 26.772 711.233 26.628 711.641 26.628C711.745 26.628 711.917 26.64 712.157 26.664V27.984C711.837 27.944 711.641 27.924 711.569 27.924C711.081 27.924 710.685 28.108 710.381 28.476C710.053 28.86 709.889 29.384 709.889 30.048V33H708.521ZM712.776 33V26.796H714.144V33H712.776ZM712.776 25.728V24.432H714.144V25.728H712.776ZM721.262 30.252H716.702C716.702 30.772 716.838 31.2 717.11 31.536C717.406 31.904 717.826 32.088 718.37 32.088C719.138 32.088 719.642 31.744 719.882 31.056H721.178C721.034 31.72 720.702 32.24 720.182 32.616C719.67 32.984 719.066 33.168 718.37 33.168C717.418 33.168 716.674 32.868 716.138 32.268C715.602 31.668 715.334 30.88 715.334 29.904C715.334 28.992 715.602 28.224 716.138 27.6C716.706 26.952 717.438 26.628 718.334 26.628C719.206 26.628 719.922 26.948 720.482 27.588C721.018 28.188 721.286 28.924 721.286 29.796C721.286 29.948 721.278 30.1 721.262 30.252ZM716.702 29.352H719.894C719.87 28.896 719.714 28.508 719.426 28.188C719.146 27.868 718.782 27.708 718.334 27.708C717.87 27.708 717.486 27.864 717.182 28.176C716.878 28.488 716.718 28.88 716.702 29.352ZM721.966 31.008H723.334C723.398 31.728 723.866 32.088 724.738 32.088C725.682 32.088 726.142 31.816 726.118 31.272C726.102 30.888 725.742 30.612 725.038 30.444C723.862 30.156 723.226 29.988 723.13 29.94C722.442 29.636 722.098 29.124 722.098 28.404C722.098 27.788 722.39 27.324 722.974 27.012C723.438 26.756 724.01 26.628 724.69 26.628C725.386 26.628 725.958 26.772 726.406 27.06C726.91 27.396 727.202 27.888 727.282 28.536H725.854C725.75 27.984 725.33 27.708 724.594 27.708C723.842 27.708 723.466 27.92 723.466 28.344C723.466 28.632 723.678 28.852 724.102 29.004C724.182 29.036 724.642 29.148 725.482 29.34C726.106 29.484 726.566 29.66 726.862 29.868C727.278 30.172 727.486 30.6 727.486 31.152C727.486 31.832 727.186 32.352 726.586 32.712C726.082 33.016 725.458 33.168 724.714 33.168C723.898 33.168 723.25 32.992 722.77 32.64C722.242 32.256 721.974 31.712 721.966 31.008ZM739.341 27.156H737.841C737.553 26.02 736.841 25.452 735.705 25.452C734.849 25.452 734.185 25.792 733.713 26.472C733.305 27.064 733.101 27.812 733.101 28.716C733.101 29.62 733.305 30.368 733.713 30.96C734.185 31.64 734.849 31.98 735.705 31.98C736.345 31.98 736.861 31.76 737.253 31.32C737.613 30.92 737.825 30.392 737.889 29.736H739.353C739.289 30.768 738.921 31.604 738.249 32.244C737.585 32.884 736.737 33.204 735.705 33.204C734.457 33.204 733.453 32.76 732.693 31.872C731.965 31.032 731.601 29.98 731.601 28.716C731.601 27.444 731.965 26.388 732.693 25.548C733.453 24.668 734.457 24.228 735.705 24.228C736.689 24.228 737.513 24.484 738.177 24.996C738.865 25.532 739.253 26.252 739.341 27.156Z" fill="#6A7383"/>
<rect x="825" width="180" height="16" fill="#C3BCFA"/>
<path d="M829.636 27.072V25.992C830.26 26 830.788 25.896 831.22 25.68C831.7 25.432 831.988 25.072 832.084 24.6H833.2V33H831.7V27.072H829.636ZM839.004 32.088C839.468 32.088 839.848 31.948 840.144 31.668C840.448 31.388 840.6 31.008 840.6 30.528C840.6 30.072 840.448 29.712 840.144 29.448C839.848 29.184 839.468 29.052 839.004 29.052C838.54 29.052 838.156 29.184 837.852 29.448C837.556 29.712 837.408 30.072 837.408 30.528C837.408 31.008 837.556 31.388 837.852 31.668C838.156 31.948 838.54 32.088 839.004 32.088ZM839.004 33.168C838.132 33.168 837.42 32.932 836.868 32.46C836.316 31.98 836.04 31.336 836.04 30.528C836.04 30.008 836.176 29.568 836.448 29.208C836.728 28.84 837.104 28.596 837.576 28.476V28.464C836.784 28.152 836.388 27.572 836.388 26.724C836.388 26.004 836.616 25.444 837.072 25.044C837.528 24.636 838.172 24.432 839.004 24.432C839.836 24.432 840.48 24.636 840.936 25.044C841.392 25.444 841.62 26.004 841.62 26.724C841.62 27.572 841.224 28.152 840.432 28.464V28.476C840.904 28.596 841.276 28.84 841.548 29.208C841.828 29.568 841.968 30.008 841.968 30.528C841.968 31.336 841.692 31.98 841.14 32.46C840.588 32.932 839.876 33.168 839.004 33.168ZM839.004 25.512C838.62 25.512 838.304 25.628 838.056 25.86C837.808 26.084 837.684 26.396 837.684 26.796C837.684 27.18 837.804 27.484 838.044 27.708C838.292 27.924 838.612 28.032 839.004 28.032C839.396 28.032 839.712 27.924 839.952 27.708C840.2 27.484 840.324 27.18 840.324 26.796C840.324 26.396 840.2 26.084 839.952 25.86C839.704 25.628 839.388 25.512 839.004 25.512ZM843.164 33V31.38H844.832V33H843.164ZM849.096 32.028C849.56 32.028 849.928 31.848 850.2 31.488C850.448 31.16 850.572 30.756 850.572 30.276C850.572 29.796 850.444 29.392 850.188 29.064C849.932 28.728 849.568 28.56 849.096 28.56C848.616 28.56 848.24 28.732 847.968 29.076C847.712 29.388 847.584 29.788 847.584 30.276C847.584 30.764 847.712 31.168 847.968 31.488C848.248 31.848 848.624 32.028 849.096 32.028ZM851.784 26.724H850.416C850.384 26.38 850.26 26.104 850.044 25.896C849.828 25.68 849.544 25.572 849.192 25.572C848.544 25.572 848.08 25.912 847.8 26.592C847.632 27 847.516 27.62 847.452 28.452L847.476 28.476C847.852 27.812 848.456 27.48 849.288 27.48C850.104 27.48 850.756 27.748 851.244 28.284C851.708 28.804 851.94 29.476 851.94 30.3C851.94 31.124 851.68 31.808 851.16 32.352C850.648 32.896 849.976 33.168 849.144 33.168C848 33.168 847.18 32.74 846.684 31.884C846.284 31.188 846.084 30.152 846.084 28.776C846.084 27.608 846.316 26.632 846.78 25.848C847.34 24.904 848.164 24.432 849.252 24.432C849.932 24.432 850.516 24.648 851.004 25.08C851.492 25.504 851.752 26.052 851.784 26.724ZM855.68 32.088C856.144 32.088 856.524 31.948 856.82 31.668C857.124 31.388 857.276 31.008 857.276 30.528C857.276 30.072 857.124 29.712 856.82 29.448C856.524 29.184 856.144 29.052 855.68 29.052C855.216 29.052 854.832 29.184 854.528 29.448C854.232 29.712 854.084 30.072 854.084 30.528C854.084 31.008 854.232 31.388 854.528 31.668C854.832 31.948 855.216 32.088 855.68 32.088ZM855.68 33.168C854.808 33.168 854.096 32.932 853.544 32.46C852.992 31.98 852.716 31.336 852.716 30.528C852.716 30.008 852.852 29.568 853.124 29.208C853.404 28.84 853.78 28.596 854.252 28.476V28.464C853.46 28.152 853.064 27.572 853.064 26.724C853.064 26.004 853.292 25.444 853.748 25.044C854.204 24.636 854.848 24.432 855.68 24.432C856.512 24.432 857.156 24.636 857.612 25.044C858.068 25.444 858.296 26.004 858.296 26.724C858.296 27.572 857.9 28.152 857.108 28.464V28.476C857.58 28.596 857.952 28.84 858.224 29.208C858.504 29.568 858.644 30.008 858.644 30.528C858.644 31.336 858.368 31.98 857.816 32.46C857.264 32.932 856.552 33.168 855.68 33.168ZM855.68 25.512C855.296 25.512 854.98 25.628 854.732 25.86C854.484 26.084 854.36 26.396 854.36 26.796C854.36 27.18 854.48 27.484 854.72 27.708C854.968 27.924 855.288 28.032 855.68 28.032C856.072 28.032 856.388 27.924 856.628 27.708C856.876 27.484 857 27.18 857 26.796C857 26.396 856.876 26.084 856.628 25.86C856.38 25.628 856.064 25.512 855.68 25.512ZM862.132 33.288L866.8 24.312H867.712L863.068 33.288H862.132ZM868.024 33.168C867.336 33.168 866.82 32.932 866.476 32.46C866.172 32.052 866.02 31.492 866.02 30.78C866.02 30.084 866.18 29.524 866.5 29.1C866.852 28.628 867.36 28.392 868.024 28.392C868.688 28.392 869.196 28.628 869.548 29.1C869.868 29.524 870.028 30.084 870.028 30.78C870.028 31.492 869.876 32.052 869.572 32.46C869.228 32.932 868.712 33.168 868.024 33.168ZM867.1 30.78C867.1 31.852 867.404 32.388 868.012 32.388C868.636 32.388 868.948 31.852 868.948 30.78C868.948 29.708 868.636 29.172 868.012 29.172C867.404 29.172 867.1 29.708 867.1 30.78ZM862 29.208C861.312 29.208 860.796 28.972 860.452 28.5C860.148 28.092 859.996 27.532 859.996 26.82C859.996 26.124 860.156 25.564 860.476 25.14C860.828 24.668 861.336 24.432 862 24.432C862.664 24.432 863.172 24.668 863.524 25.14C863.844 25.564 864.004 26.124 864.004 26.82C864.004 27.532 863.852 28.092 863.548 28.5C863.204 28.972 862.688 29.208 862 29.208ZM861.076 26.82C861.076 27.892 861.38 28.428 861.988 28.428C862.612 28.428 862.924 27.892 862.924 26.82C862.924 25.748 862.612 25.212 861.988 25.212C861.38 25.212 861.076 25.748 861.076 26.82ZM874.748 30.144H876.248C876.248 30.768 876.46 31.24 876.884 31.56C877.26 31.84 877.772 31.98 878.42 31.98C879.036 31.98 879.504 31.844 879.824 31.572C880.096 31.34 880.232 31.044 880.232 30.684C880.232 30.156 879.996 29.804 879.524 29.628C879.46 29.604 878.608 29.368 876.968 28.92C875.704 28.576 875.072 27.852 875.072 26.748C875.072 25.94 875.4 25.304 876.056 24.84C876.64 24.432 877.356 24.228 878.204 24.228C879.14 24.228 879.912 24.46 880.52 24.924C881.168 25.428 881.492 26.108 881.492 26.964H879.992C879.928 25.956 879.312 25.452 878.144 25.452C877.728 25.452 877.38 25.528 877.1 25.68C876.748 25.88 876.572 26.176 876.572 26.568C876.572 27.12 876.912 27.488 877.592 27.672C878.272 27.848 879.096 28.068 880.064 28.332C880.6 28.492 881.02 28.788 881.324 29.22C881.596 29.612 881.732 30.044 881.732 30.516C881.732 31.412 881.376 32.1 880.664 32.58C880.048 32.996 879.268 33.204 878.324 33.204C877.284 33.204 876.448 32.96 875.816 32.472C875.12 31.936 874.764 31.16 874.748 30.144ZM888.481 30.252H883.921C883.921 30.772 884.057 31.2 884.329 31.536C884.625 31.904 885.045 32.088 885.589 32.088C886.357 32.088 886.861 31.744 887.101 31.056H888.397C888.253 31.72 887.921 32.24 887.401 32.616C886.889 32.984 886.285 33.168 885.589 33.168C884.637 33.168 883.893 32.868 883.357 32.268C882.821 31.668 882.553 30.88 882.553 29.904C882.553 28.992 882.821 28.224 883.357 27.6C883.925 26.952 884.657 26.628 885.553 26.628C886.425 26.628 887.141 26.948 887.701 27.588C888.237 28.188 888.505 28.924 888.505 29.796C888.505 29.948 888.497 30.1 888.481 30.252ZM883.921 29.352H887.113C887.089 28.896 886.933 28.508 886.645 28.188C886.365 27.868 886.001 27.708 885.553 27.708C885.089 27.708 884.705 27.864 884.401 28.176C884.097 28.488 883.937 28.88 883.921 29.352ZM889.521 33V26.796H890.805V27.996H890.829C890.909 27.652 891.129 27.34 891.489 27.06C891.849 26.772 892.233 26.628 892.641 26.628C892.745 26.628 892.917 26.64 893.157 26.664V27.984C892.837 27.944 892.641 27.924 892.569 27.924C892.081 27.924 891.685 28.108 891.381 28.476C891.053 28.86 890.889 29.384 890.889 30.048V33H889.521ZM893.776 33V26.796H895.144V33H893.776ZM893.776 25.728V24.432H895.144V25.728H893.776ZM902.262 30.252H897.702C897.702 30.772 897.838 31.2 898.11 31.536C898.406 31.904 898.826 32.088 899.37 32.088C900.138 32.088 900.642 31.744 900.882 31.056H902.178C902.034 31.72 901.702 32.24 901.182 32.616C900.67 32.984 900.066 33.168 899.37 33.168C898.418 33.168 897.674 32.868 897.138 32.268C896.602 31.668 896.334 30.88 896.334 29.904C896.334 28.992 896.602 28.224 897.138 27.6C897.706 26.952 898.438 26.628 899.334 26.628C900.206 26.628 900.922 26.948 901.482 27.588C902.018 28.188 902.286 28.924 902.286 29.796C902.286 29.948 902.278 30.1 902.262 30.252ZM897.702 29.352H900.894C900.87 28.896 900.714 28.508 900.426 28.188C900.146 27.868 899.782 27.708 899.334 27.708C898.87 27.708 898.486 27.864 898.182 28.176C897.878 28.488 897.718 28.88 897.702 29.352ZM902.966 31.008H904.334C904.398 31.728 904.866 32.088 905.738 32.088C906.682 32.088 907.142 31.816 907.118 31.272C907.102 30.888 906.742 30.612 906.038 30.444C904.862 30.156 904.226 29.988 904.13 29.94C903.442 29.636 903.098 29.124 903.098 28.404C903.098 27.788 903.39 27.324 903.974 27.012C904.438 26.756 905.01 26.628 905.69 26.628C906.386 26.628 906.958 26.772 907.406 27.06C907.91 27.396 908.202 27.888 908.282 28.536H906.854C906.75 27.984 906.33 27.708 905.594 27.708C904.842 27.708 904.466 27.92 904.466 28.344C904.466 28.632 904.678 28.852 905.102 29.004C905.182 29.036 905.642 29.148 906.482 29.34C907.106 29.484 907.566 29.66 907.862 29.868C908.278 30.172 908.486 30.6 908.486 31.152C908.486 31.832 908.186 32.352 907.586 32.712C907.082 33.016 906.458 33.168 905.714 33.168C904.898 33.168 904.25 32.992 903.77 32.64C903.242 32.256 902.974 31.712 902.966 31.008ZM914.557 25.656V31.776H916.033C917.121 31.776 917.893 31.48 918.349 30.888C918.709 30.408 918.889 29.684 918.889 28.716C918.889 27.748 918.709 27.024 918.349 26.544C917.893 25.952 917.121 25.656 916.033 25.656H914.557ZM913.057 33V24.432H916.609C917.865 24.432 918.825 24.852 919.489 25.692C920.089 26.444 920.389 27.452 920.389 28.716C920.389 29.98 920.089 30.988 919.489 31.74C918.825 32.58 917.865 33 916.609 33H913.057Z" fill="#6A7383"/>
<rect x="1006" width="280" height="16" fill="#F2EBFF"/>
<path d="M1012.74 29.1V28.08C1013.26 28.104 1013.68 28.016 1014.01 27.816C1014.4 27.592 1014.6 27.24 1014.6 26.76C1014.6 26.408 1014.47 26.124 1014.22 25.908C1013.98 25.684 1013.67 25.572 1013.29 25.572C1012.84 25.572 1012.49 25.744 1012.24 26.088C1012 26.424 1011.88 26.824 1011.9 27.288H1010.53C1010.57 26.448 1010.83 25.768 1011.31 25.248C1011.82 24.704 1012.49 24.432 1013.31 24.432C1014.02 24.432 1014.63 24.62 1015.12 24.996C1015.68 25.412 1015.96 25.972 1015.96 26.676C1015.96 27.596 1015.57 28.196 1014.78 28.476V28.5C1015.25 28.596 1015.62 28.836 1015.89 29.22C1016.16 29.596 1016.3 30.056 1016.3 30.6C1016.3 31.368 1016 31.992 1015.41 32.472C1014.85 32.936 1014.16 33.168 1013.32 33.168C1012.38 33.168 1011.65 32.9 1011.13 32.364C1010.64 31.852 1010.39 31.144 1010.37 30.24H1011.74C1011.72 30.768 1011.85 31.192 1012.12 31.512C1012.4 31.856 1012.8 32.028 1013.32 32.028C1013.8 32.028 1014.18 31.896 1014.48 31.632C1014.78 31.36 1014.93 30.992 1014.93 30.528C1014.93 29.512 1014.2 29.036 1012.74 29.1ZM1020 32.028C1021.03 32.028 1021.54 30.952 1021.54 28.8C1021.54 26.648 1021.03 25.572 1020 25.572C1018.98 25.572 1018.47 26.648 1018.47 28.8C1018.47 30.952 1018.98 32.028 1020 32.028ZM1020 24.432C1021.09 24.432 1021.88 24.92 1022.36 25.896C1022.72 26.632 1022.91 27.6 1022.91 28.8C1022.91 30 1022.72 30.968 1022.36 31.704C1021.88 32.68 1021.09 33.168 1020 33.168C1018.92 33.168 1018.13 32.68 1017.65 31.704C1017.28 30.968 1017.1 30 1017.1 28.8C1017.1 27.6 1017.28 26.632 1017.65 25.896C1018.13 24.92 1018.92 24.432 1020 24.432ZM1024.16 33V31.38H1025.83V33H1024.16ZM1029.92 25.572C1029.44 25.572 1029.08 25.744 1028.81 26.088C1028.57 26.4 1028.45 26.8 1028.45 27.288C1028.45 27.784 1028.57 28.192 1028.81 28.512C1029.08 28.872 1029.44 29.052 1029.92 29.052C1030.4 29.052 1030.78 28.872 1031.06 28.512C1031.31 28.192 1031.44 27.784 1031.44 27.288C1031.44 26.808 1031.31 26.404 1031.04 26.076C1030.78 25.74 1030.4 25.572 1029.92 25.572ZM1027.24 30.876H1028.61C1028.64 31.22 1028.76 31.5 1028.98 31.716C1029.2 31.924 1029.48 32.028 1029.83 32.028C1030.48 32.028 1030.94 31.684 1031.22 30.996C1031.39 30.596 1031.51 29.98 1031.57 29.148L1031.55 29.124C1031.17 29.796 1030.57 30.132 1029.74 30.132C1028.94 30.132 1028.3 29.876 1027.82 29.364C1027.33 28.844 1027.08 28.156 1027.08 27.3C1027.08 26.46 1027.34 25.772 1027.85 25.236C1028.37 24.7 1029.08 24.432 1029.98 24.432C1031.08 24.432 1031.87 24.856 1032.35 25.704C1032.74 26.408 1032.94 27.448 1032.94 28.824C1032.94 29.992 1032.71 30.968 1032.24 31.752C1031.68 32.696 1030.86 33.168 1029.77 33.168C1029.09 33.168 1028.51 32.956 1028.02 32.532C1027.53 32.1 1027.27 31.548 1027.24 30.876ZM1036.08 29.1V28.08C1036.6 28.104 1037.02 28.016 1037.35 27.816C1037.74 27.592 1037.94 27.24 1037.94 26.76C1037.94 26.408 1037.82 26.124 1037.57 25.908C1037.33 25.684 1037.02 25.572 1036.63 25.572C1036.18 25.572 1035.84 25.744 1035.59 26.088C1035.34 26.424 1035.22 26.824 1035.24 27.288H1033.87C1033.91 26.448 1034.17 25.768 1034.65 25.248C1035.16 24.704 1035.83 24.432 1036.66 24.432C1037.37 24.432 1037.97 24.62 1038.47 24.996C1039.03 25.412 1039.31 25.972 1039.31 26.676C1039.31 27.596 1038.91 28.196 1038.12 28.476V28.5C1038.59 28.596 1038.96 28.836 1039.24 29.22C1039.51 29.596 1039.64 30.056 1039.64 30.6C1039.64 31.368 1039.35 31.992 1038.76 32.472C1038.2 32.936 1037.5 33.168 1036.67 33.168C1035.72 33.168 1034.99 32.9 1034.47 32.364C1033.98 31.852 1033.73 31.144 1033.72 30.24H1035.08C1035.07 30.768 1035.2 31.192 1035.47 31.512C1035.75 31.856 1036.15 32.028 1036.67 32.028C1037.14 32.028 1037.52 31.896 1037.82 31.632C1038.12 31.36 1038.28 30.992 1038.28 30.528C1038.28 29.512 1037.54 29.036 1036.08 29.1ZM1043.13 33.288L1047.8 24.312H1048.71L1044.07 33.288H1043.13ZM1049.02 33.168C1048.34 33.168 1047.82 32.932 1047.48 32.46C1047.17 32.052 1047.02 31.492 1047.02 30.78C1047.02 30.084 1047.18 29.524 1047.5 29.1C1047.85 28.628 1048.36 28.392 1049.02 28.392C1049.69 28.392 1050.2 28.628 1050.55 29.1C1050.87 29.524 1051.03 30.084 1051.03 30.78C1051.03 31.492 1050.88 32.052 1050.57 32.46C1050.23 32.932 1049.71 33.168 1049.02 33.168ZM1048.1 30.78C1048.1 31.852 1048.4 32.388 1049.01 32.388C1049.64 32.388 1049.95 31.852 1049.95 30.78C1049.95 29.708 1049.64 29.172 1049.01 29.172C1048.4 29.172 1048.1 29.708 1048.1 30.78ZM1043 29.208C1042.31 29.208 1041.8 28.972 1041.45 28.5C1041.15 28.092 1041 27.532 1041 26.82C1041 26.124 1041.16 25.564 1041.48 25.14C1041.83 24.668 1042.34 24.432 1043 24.432C1043.66 24.432 1044.17 24.668 1044.52 25.14C1044.84 25.564 1045 26.124 1045 26.82C1045 27.532 1044.85 28.092 1044.55 28.5C1044.2 28.972 1043.69 29.208 1043 29.208ZM1042.08 26.82C1042.08 27.892 1042.38 28.428 1042.99 28.428C1043.61 28.428 1043.92 27.892 1043.92 26.82C1043.92 25.748 1043.61 25.212 1042.99 25.212C1042.38 25.212 1042.08 25.748 1042.08 26.82ZM1059.91 24.228C1061.16 24.228 1062.16 24.668 1062.92 25.548C1063.65 26.396 1064.02 27.452 1064.02 28.716C1064.02 29.98 1063.65 31.032 1062.92 31.872C1062.16 32.76 1061.16 33.204 1059.91 33.204C1058.66 33.204 1057.66 32.76 1056.9 31.872C1056.17 31.032 1055.81 29.98 1055.81 28.716C1055.81 27.452 1056.17 26.396 1056.9 25.548C1057.66 24.668 1058.66 24.228 1059.91 24.228ZM1059.91 25.452C1059.06 25.452 1058.39 25.792 1057.92 26.472C1057.51 27.064 1057.31 27.812 1057.31 28.716C1057.31 29.62 1057.51 30.368 1057.92 30.96C1058.39 31.64 1059.06 31.98 1059.91 31.98C1060.77 31.98 1061.43 31.64 1061.9 30.96C1062.31 30.368 1062.52 29.62 1062.52 28.716C1062.52 27.812 1062.31 27.064 1061.9 26.472C1061.43 25.792 1060.77 25.452 1059.91 25.452ZM1070.64 26.796V33H1069.29V32.136H1069.27C1069.1 32.44 1068.85 32.688 1068.51 32.88C1068.18 33.072 1067.85 33.168 1067.5 33.168C1065.96 33.168 1065.19 32.356 1065.19 30.732V26.796H1066.56V30.6C1066.56 31.592 1066.95 32.088 1067.74 32.088C1068.76 32.088 1069.27 31.524 1069.27 30.396V26.796H1070.64ZM1071.46 27.816V26.796H1072.49V24.936H1073.86V26.796H1075.09V27.816H1073.86V31.128C1073.86 31.448 1073.89 31.66 1073.95 31.764C1074.04 31.908 1074.23 31.98 1074.52 31.98C1074.77 31.98 1074.96 31.964 1075.09 31.932V32.988C1074.49 33.036 1074.2 33.06 1074.2 33.06C1073.53 33.06 1073.07 32.924 1072.81 32.652C1072.6 32.428 1072.49 32.036 1072.49 31.476V27.816H1071.46ZM1075.74 31.008H1077.11C1077.17 31.728 1077.64 32.088 1078.51 32.088C1079.46 32.088 1079.92 31.816 1079.89 31.272C1079.88 30.888 1079.52 30.612 1078.81 30.444C1077.64 30.156 1077 29.988 1076.9 29.94C1076.22 29.636 1075.87 29.124 1075.87 28.404C1075.87 27.788 1076.16 27.324 1076.75 27.012C1077.21 26.756 1077.78 26.628 1078.46 26.628C1079.16 26.628 1079.73 26.772 1080.18 27.06C1080.68 27.396 1080.98 27.888 1081.06 28.536H1079.63C1079.52 27.984 1079.1 27.708 1078.37 27.708C1077.62 27.708 1077.24 27.92 1077.24 28.344C1077.24 28.632 1077.45 28.852 1077.88 29.004C1077.96 29.036 1078.42 29.148 1079.26 29.34C1079.88 29.484 1080.34 29.66 1080.64 29.868C1081.05 30.172 1081.26 30.6 1081.26 31.152C1081.26 31.832 1080.96 32.352 1080.36 32.712C1079.86 33.016 1079.23 33.168 1078.49 33.168C1077.67 33.168 1077.02 32.992 1076.54 32.64C1076.02 32.256 1075.75 31.712 1075.74 31.008ZM1081.67 27.816V26.796H1082.71V24.936H1084.07V26.796H1085.31V27.816H1084.07V31.128C1084.07 31.448 1084.11 31.66 1084.17 31.764C1084.26 31.908 1084.45 31.98 1084.73 31.98C1084.99 31.98 1085.18 31.964 1085.31 31.932V32.988C1084.71 33.036 1084.41 33.06 1084.42 33.06C1083.75 33.06 1083.29 32.924 1083.03 32.652C1082.81 32.428 1082.71 32.036 1082.71 31.476V27.816H1081.67ZM1090.12 30.912V29.892C1089.95 30.004 1089.69 30.088 1089.35 30.144C1089.05 30.184 1088.75 30.224 1088.44 30.264C1087.7 30.392 1087.33 30.736 1087.33 31.296C1087.33 31.568 1087.48 31.776 1087.78 31.92C1088.01 32.032 1088.28 32.088 1088.59 32.088C1088.95 32.088 1089.29 32 1089.58 31.824C1089.94 31.608 1090.12 31.304 1090.12 30.912ZM1091.49 28.428V31.62C1091.49 31.932 1091.6 32.088 1091.81 32.088C1091.94 32.088 1092.05 32.08 1092.15 32.064V33.012C1091.85 33.116 1091.57 33.168 1091.29 33.168C1090.68 33.168 1090.33 32.916 1090.23 32.412C1089.72 32.916 1089 33.168 1088.08 33.168C1087.48 33.168 1086.99 33.016 1086.61 32.712C1086.17 32.384 1085.96 31.932 1085.96 31.356C1085.96 30.668 1086.21 30.172 1086.73 29.868C1087.04 29.684 1087.58 29.536 1088.35 29.424C1089.21 29.296 1089.64 29.232 1089.64 29.232C1090.02 29.12 1090.21 28.892 1090.21 28.548C1090.21 27.988 1089.78 27.708 1088.92 27.708C1088.07 27.708 1087.61 28.036 1087.55 28.692H1086.19C1086.27 27.316 1087.21 26.628 1089.01 26.628C1089.69 26.628 1090.25 26.764 1090.7 27.036C1091.23 27.356 1091.49 27.82 1091.49 28.428ZM1092.96 33V26.796H1094.26V27.708L1094.28 27.732C1094.72 26.996 1095.37 26.628 1096.21 26.628C1096.9 26.628 1097.44 26.808 1097.82 27.168C1098.21 27.528 1098.41 28.052 1098.41 28.74V33H1097.04V29.1C1097.04 28.172 1096.64 27.708 1095.83 27.708C1095.38 27.708 1095.02 27.864 1094.74 28.176C1094.47 28.488 1094.33 28.876 1094.33 29.34V33H1092.96ZM1100.92 29.964C1100.92 30.548 1101.06 31.036 1101.33 31.428C1101.64 31.868 1102.08 32.088 1102.64 32.088C1103.2 32.088 1103.65 31.856 1103.97 31.392C1104.24 30.992 1104.38 30.492 1104.38 29.892C1104.38 29.212 1104.22 28.68 1103.91 28.296C1103.6 27.904 1103.19 27.708 1102.66 27.708C1102.07 27.708 1101.62 27.944 1101.3 28.416C1101.05 28.816 1100.92 29.332 1100.92 29.964ZM1105.7 24.432V33H1104.4V32.16H1104.38C1104.03 32.832 1103.39 33.168 1102.46 33.168C1101.51 33.168 1100.78 32.848 1100.27 32.208C1099.79 31.616 1099.55 30.832 1099.55 29.856C1099.55 28.8 1099.83 27.98 1100.39 27.396C1100.88 26.884 1101.5 26.628 1102.24 26.628C1103.22 26.628 1103.9 26.952 1104.3 27.6H1104.33V24.432H1105.7ZM1107.22 33V26.796H1108.59V33H1107.22ZM1107.22 25.728V24.432H1108.59V25.728H1107.22ZM1110.08 33V26.796H1111.38V27.708L1111.4 27.732C1111.84 26.996 1112.49 26.628 1113.34 26.628C1114.02 26.628 1114.56 26.808 1114.94 27.168C1115.34 27.528 1115.53 28.052 1115.53 28.74V33H1114.16V29.1C1114.16 28.172 1113.76 27.708 1112.95 27.708C1112.5 27.708 1112.14 27.864 1111.86 28.176C1111.59 28.488 1111.45 28.876 1111.45 29.34V33H1110.08ZM1119.67 31.92C1120.23 31.92 1120.66 31.692 1120.96 31.236C1121.21 30.844 1121.34 30.352 1121.34 29.76C1121.34 29.176 1121.21 28.7 1120.96 28.332C1120.66 27.916 1120.23 27.708 1119.67 27.708C1119.11 27.708 1118.69 27.94 1118.4 28.404C1118.16 28.788 1118.04 29.276 1118.04 29.868C1118.04 30.428 1118.17 30.896 1118.43 31.272C1118.72 31.704 1119.14 31.92 1119.67 31.92ZM1122.71 26.796V32.676C1122.71 34.532 1121.69 35.46 1119.66 35.46C1118.94 35.46 1118.34 35.32 1117.85 35.04C1117.27 34.704 1116.95 34.2 1116.89 33.528H1118.26C1118.39 34.136 1118.88 34.44 1119.75 34.44C1120.81 34.44 1121.34 33.912 1121.34 32.856V31.908H1121.32C1120.91 32.636 1120.29 33 1119.46 33C1118.52 33 1117.81 32.676 1117.33 32.028C1116.89 31.46 1116.67 30.696 1116.67 29.736C1116.67 28.864 1116.92 28.136 1117.42 27.552C1117.94 26.936 1118.63 26.628 1119.48 26.628C1120.37 26.628 1120.98 26.968 1121.32 27.648H1121.34V26.796H1122.71Z" fill="#6A7383"/>
</svg>