<svg width="24" height="24" viewBox="0 0 24 24" fill="none" xmlns="http://www.w3.org/2000/svg">
<path fill-rule="evenodd" clip-rule="evenodd" d="M16.7065 15.2923C16.6727 15.2586 16.6372 15.2277 16.6002 15.1998C17.479 14.0299 17.9997 12.5757 17.9997 10.9999C17.9997 7.13394 14.8658 4 10.9998 4C7.13394 4 4 7.13394 4 10.9999C4 14.8658 7.13394 17.9997 10.9998 17.9997C12.5757 17.9997 14.0299 17.479 15.1999 16.6002C15.2278 16.6372 15.2586 16.6727 15.2923 16.7065L18.2929 19.7071C18.6834 20.0976 19.3166 20.0976 19.7071 19.7071C20.0976 19.3166 20.0976 18.6834 19.7071 18.2929L16.7065 15.2923ZM15.9997 10.9999C15.9997 13.7612 13.7612 15.9998 10.9998 15.9998C8.23848 15.9998 5.99996 13.7612 5.99996 10.9999C5.99996 8.23849 8.23848 5.99996 10.9998 5.99996C13.7612 5.99996 15.9997 8.23849 15.9997 10.9999Z" fill="#545969"/>
</svg>
